<svg id="javascript_icon" role="img" viewBox="0 0 24 24" xmlns="http://www.w3.org/2000/svg">
  <title>JavaScript icon</title>
  <style>
    @import url("../../../css/skills.css");
  </style>
  <<path d="M0 1280 l0 -1280 1280 0 1280 0 0 1280 0 1280 -1280 0 -1280 0 0
-1280z m796 862 c62 -32 97 -65 129 -124 26 -45 30 -64 30 -128 0 -53 -6 -88
-19 -118 l-20 -43 83 -83 83 -84 52 23 c28 12 59 25 69 28 14 5 17 19 17 85
l0 79 -37 24 c-76 49 -104 149 -64 227 56 109 192 135 285 53 86 -75 67 -234
-35 -286 -28 -15 -29 -17 -29 -96 0 -67 3 -81 18 -86 9 -3 40 -16 68 -28 l52
-23 83 84 83 83 -20 43 c-13 30 -19 65 -19 118 0 64 4 83 30 128 32 59 66 91
129 125 58 31 184 31 242 0 63 -34 97 -66 129 -125 26 -46 30 -63 30 -133 0
-70 -4 -87 -30 -133 -32 -59 -66 -92 -129 -125 -55 -29 -173 -30 -234 -3 l-43
20 -83 -83 -84 -83 23 -52 c12 -28 25 -59 28 -68 5 -15 19 -18 85 -18 l79 0
24 37 c96 148 329 79 329 -97 0 -44 -26 -104 -57 -132 -81 -74 -213 -57 -272
35 l-24 37 -79 0 c-66 0 -80 -3 -85 -18 -3 -9 -16 -40 -28 -68 l-23 -52 83
-82 84 -83 52 23 c43 18 66 21 119 18 106 -8 185 -58 235 -150 26 -46 30 -63
30 -133 0 -63 -5 -89 -22 -121 -34 -63 -66 -97 -125 -129 -46 -26 -63 -30
-133 -30 -70 0 -87 4 -133 30 -59 32 -92 66 -125 129 -29 55 -30 173 -3 234
l20 43 -83 83 -83 84 -57 -27 c-47 -22 -70 -26 -141 -26 -71 0 -94 4 -141 26
l-57 27 -60 -62 -61 -61 5 -65 c4 -55 1 -71 -18 -105 -27 -46 -76 -82 -124
-91 -144 -27 -260 126 -194 255 37 73 107 108 194 97 l51 -6 61 61 62 61 -27
57 c-22 47 -26 70 -26 141 0 71 4 94 26 141 l27 57 -84 83 -83 83 -43 -20
c-61 -27 -179 -26 -234 3 -63 33 -97 66 -128 123 -85 155 -11 342 161 406 53
20 157 13 209 -14z"/>
<path d="M600 2027 c-50 -26 -90 -90 -90 -142 0 -52 40 -116 90 -142 55 -29
95 -29 150 0 50 26 90 90 90 142 0 52 -40 116 -90 142 -24 13 -57 23 -75 23
-18 0 -51 -10 -75 -23z"/>
<path d="M1810 2027 c-50 -26 -90 -90 -90 -142 0 -52 40 -116 90 -142 55 -29
95 -29 150 0 50 26 90 90 90 142 0 18 -10 51 -23 75 -26 50 -90 90 -142 90
-18 0 -51 -10 -75 -23z"/>
<path d="M1240 1990 c-11 -11 -20 -29 -20 -40 0 -11 9 -29 20 -40 11 -11 29
-20 40 -20 11 0 29 9 40 20 11 11 20 29 20 40 0 11 -9 29 -20 40 -11 11 -29
20 -40 20 -11 0 -29 -9 -40 -20z"/>
<path d="M1205 1485 c-22 -8 -59 -34 -82 -58 -86 -91 -84 -209 6 -298 91 -92
211 -92 302 0 92 91 92 211 0 302 -66 66 -141 84 -226 54z"/>
<path d="M1910 1320 c-11 -11 -20 -29 -20 -40 0 -11 9 -29 20 -40 11 -11 29
-20 40 -20 11 0 29 9 40 20 11 11 20 29 20 40 0 11 -9 29 -20 40 -11 11 -29
20 -40 20 -11 0 -29 -9 -40 -20z"/>
<path d="M750 830 c-11 -11 -20 -29 -20 -40 0 -11 9 -29 20 -40 11 -11 29 -20
40 -20 11 0 29 9 40 20 11 11 20 29 20 40 0 11 -9 29 -20 40 -11 11 -29 20
-40 20 -11 0 -29 -9 -40 -20z"/>
<path d="M1810 817 c-50 -26 -90 -90 -90 -142 0 -52 40 -116 90 -142 55 -29
95 -29 150 0 50 26 90 90 90 142 0 52 -40 116 -90 142 -55 29 -95 29 -150 0z"/></svg>
